<mxfile host="Electron" modified="2024-03-27T16:55:45.785Z" agent="Mozilla/5.0 (Windows NT 10.0; Win64; x64) AppleWebKit/537.36 (KHTML, like Gecko) draw.io/24.0.4 Chrome/120.0.6099.109 Electron/28.1.0 Safari/537.36" etag="PsOLDw3UYol-DT1Gb-p5" version="24.0.4" type="device">
  <diagram name="Pagina-1" id="5c-wr3qqWFPQMxHT_oJn">
    <mxGraphModel dx="2630" dy="887" grid="1" gridSize="10" guides="1" tooltips="1" connect="1" arrows="1" fold="1" page="1" pageScale="1" pageWidth="827" pageHeight="1169" math="0" shadow="0">
      <root>
        <mxCell id="0" />
        <mxCell id="1" parent="0" />
        <mxCell id="XcEQjQh1tZwT3rCd4wff-8" style="edgeStyle=orthogonalEdgeStyle;rounded=0;orthogonalLoop=1;jettySize=auto;html=1;entryX=0;entryY=0.5;entryDx=0;entryDy=0;endArrow=doubleBlock;endFill=1;" edge="1" parent="1" source="XcEQjQh1tZwT3rCd4wff-1" target="XcEQjQh1tZwT3rCd4wff-7">
          <mxGeometry relative="1" as="geometry" />
        </mxCell>
        <mxCell id="XcEQjQh1tZwT3rCd4wff-20" style="edgeStyle=orthogonalEdgeStyle;rounded=0;orthogonalLoop=1;jettySize=auto;html=1;entryX=1;entryY=0.5;entryDx=0;entryDy=0;endArrow=doubleBlock;endFill=1;" edge="1" parent="1" source="XcEQjQh1tZwT3rCd4wff-1" target="XcEQjQh1tZwT3rCd4wff-19">
          <mxGeometry relative="1" as="geometry" />
        </mxCell>
        <mxCell id="XcEQjQh1tZwT3rCd4wff-65" style="edgeStyle=orthogonalEdgeStyle;rounded=0;orthogonalLoop=1;jettySize=auto;html=1;entryX=0;entryY=0.5;entryDx=0;entryDy=0;" edge="1" parent="1" source="XcEQjQh1tZwT3rCd4wff-1" target="XcEQjQh1tZwT3rCd4wff-58">
          <mxGeometry relative="1" as="geometry" />
        </mxCell>
        <mxCell id="XcEQjQh1tZwT3rCd4wff-66" style="edgeStyle=orthogonalEdgeStyle;rounded=0;orthogonalLoop=1;jettySize=auto;html=1;entryX=0;entryY=0.5;entryDx=0;entryDy=0;" edge="1" parent="1" source="XcEQjQh1tZwT3rCd4wff-1" target="XcEQjQh1tZwT3rCd4wff-60">
          <mxGeometry relative="1" as="geometry" />
        </mxCell>
        <mxCell id="XcEQjQh1tZwT3rCd4wff-67" style="edgeStyle=orthogonalEdgeStyle;rounded=0;orthogonalLoop=1;jettySize=auto;html=1;entryX=0;entryY=0.5;entryDx=0;entryDy=0;" edge="1" parent="1" source="XcEQjQh1tZwT3rCd4wff-1" target="XcEQjQh1tZwT3rCd4wff-63">
          <mxGeometry relative="1" as="geometry" />
        </mxCell>
        <mxCell id="XcEQjQh1tZwT3rCd4wff-1" value="Prodotti" style="rounded=0;whiteSpace=wrap;html=1;" vertex="1" parent="1">
          <mxGeometry x="120" y="810" width="120" height="60" as="geometry" />
        </mxCell>
        <mxCell id="XcEQjQh1tZwT3rCd4wff-45" style="edgeStyle=orthogonalEdgeStyle;rounded=0;orthogonalLoop=1;jettySize=auto;html=1;entryX=0;entryY=0.5;entryDx=0;entryDy=0;" edge="1" parent="1" source="XcEQjQh1tZwT3rCd4wff-2" target="XcEQjQh1tZwT3rCd4wff-43">
          <mxGeometry relative="1" as="geometry">
            <Array as="points">
              <mxPoint x="740" y="935" />
            </Array>
          </mxGeometry>
        </mxCell>
        <mxCell id="XcEQjQh1tZwT3rCd4wff-69" style="edgeStyle=orthogonalEdgeStyle;rounded=0;orthogonalLoop=1;jettySize=auto;html=1;entryX=1;entryY=0.5;entryDx=0;entryDy=0;endArrow=doubleBlock;endFill=1;" edge="1" parent="1" source="XcEQjQh1tZwT3rCd4wff-2" target="XcEQjQh1tZwT3rCd4wff-7">
          <mxGeometry relative="1" as="geometry" />
        </mxCell>
        <mxCell id="XcEQjQh1tZwT3rCd4wff-2" value="Categorie" style="rounded=0;whiteSpace=wrap;html=1;" vertex="1" parent="1">
          <mxGeometry x="670" y="810" width="120" height="60" as="geometry" />
        </mxCell>
        <mxCell id="XcEQjQh1tZwT3rCd4wff-12" style="edgeStyle=orthogonalEdgeStyle;rounded=0;orthogonalLoop=1;jettySize=auto;html=1;entryX=0;entryY=0.5;entryDx=0;entryDy=0;endArrow=doubleBlock;endFill=1;" edge="1" parent="1" source="XcEQjQh1tZwT3rCd4wff-4" target="XcEQjQh1tZwT3rCd4wff-11">
          <mxGeometry relative="1" as="geometry" />
        </mxCell>
        <mxCell id="XcEQjQh1tZwT3rCd4wff-33" style="edgeStyle=orthogonalEdgeStyle;rounded=0;orthogonalLoop=1;jettySize=auto;html=1;entryX=0;entryY=0.5;entryDx=0;entryDy=0;" edge="1" parent="1" source="XcEQjQh1tZwT3rCd4wff-4" target="XcEQjQh1tZwT3rCd4wff-23">
          <mxGeometry relative="1" as="geometry" />
        </mxCell>
        <mxCell id="XcEQjQh1tZwT3rCd4wff-34" style="edgeStyle=orthogonalEdgeStyle;rounded=0;orthogonalLoop=1;jettySize=auto;html=1;entryX=0;entryY=0.5;entryDx=0;entryDy=0;" edge="1" parent="1" source="XcEQjQh1tZwT3rCd4wff-4" target="XcEQjQh1tZwT3rCd4wff-25">
          <mxGeometry relative="1" as="geometry" />
        </mxCell>
        <mxCell id="XcEQjQh1tZwT3rCd4wff-35" style="edgeStyle=orthogonalEdgeStyle;rounded=0;orthogonalLoop=1;jettySize=auto;html=1;entryX=0;entryY=0.5;entryDx=0;entryDy=0;" edge="1" parent="1" source="XcEQjQh1tZwT3rCd4wff-4" target="XcEQjQh1tZwT3rCd4wff-27">
          <mxGeometry relative="1" as="geometry" />
        </mxCell>
        <mxCell id="XcEQjQh1tZwT3rCd4wff-4" value="Utenti" style="rounded=0;whiteSpace=wrap;html=1;" vertex="1" parent="1">
          <mxGeometry x="-270" y="210" width="120" height="60" as="geometry" />
        </mxCell>
        <mxCell id="XcEQjQh1tZwT3rCd4wff-13" style="edgeStyle=orthogonalEdgeStyle;rounded=0;orthogonalLoop=1;jettySize=auto;html=1;entryX=1;entryY=0.5;entryDx=0;entryDy=0;" edge="1" parent="1" source="XcEQjQh1tZwT3rCd4wff-5" target="XcEQjQh1tZwT3rCd4wff-11">
          <mxGeometry relative="1" as="geometry" />
        </mxCell>
        <mxCell id="XcEQjQh1tZwT3rCd4wff-42" style="edgeStyle=orthogonalEdgeStyle;rounded=0;orthogonalLoop=1;jettySize=auto;html=1;entryX=0;entryY=0.5;entryDx=0;entryDy=0;" edge="1" parent="1" source="XcEQjQh1tZwT3rCd4wff-5" target="XcEQjQh1tZwT3rCd4wff-36">
          <mxGeometry relative="1" as="geometry">
            <Array as="points">
              <mxPoint x="210" y="312" />
            </Array>
          </mxGeometry>
        </mxCell>
        <mxCell id="XcEQjQh1tZwT3rCd4wff-52" style="edgeStyle=orthogonalEdgeStyle;rounded=0;orthogonalLoop=1;jettySize=auto;html=1;entryX=0.5;entryY=0;entryDx=0;entryDy=0;endArrow=doubleBlock;endFill=1;" edge="1" parent="1" source="XcEQjQh1tZwT3rCd4wff-5" target="XcEQjQh1tZwT3rCd4wff-53">
          <mxGeometry relative="1" as="geometry">
            <mxPoint x="180" y="360" as="targetPoint" />
          </mxGeometry>
        </mxCell>
        <mxCell id="XcEQjQh1tZwT3rCd4wff-5" value="Ordini" style="rounded=0;whiteSpace=wrap;html=1;" vertex="1" parent="1">
          <mxGeometry x="120" y="210" width="120" height="60" as="geometry" />
        </mxCell>
        <mxCell id="XcEQjQh1tZwT3rCd4wff-21" style="edgeStyle=orthogonalEdgeStyle;rounded=0;orthogonalLoop=1;jettySize=auto;html=1;entryX=0;entryY=0.5;entryDx=0;entryDy=0;" edge="1" parent="1" source="XcEQjQh1tZwT3rCd4wff-6" target="XcEQjQh1tZwT3rCd4wff-19">
          <mxGeometry relative="1" as="geometry">
            <Array as="points">
              <mxPoint x="-250" y="840" />
            </Array>
          </mxGeometry>
        </mxCell>
        <mxCell id="XcEQjQh1tZwT3rCd4wff-71" style="edgeStyle=orthogonalEdgeStyle;rounded=0;orthogonalLoop=1;jettySize=auto;html=1;entryX=0;entryY=0.5;entryDx=0;entryDy=0;endArrow=doubleBlock;endFill=1;" edge="1" parent="1" source="XcEQjQh1tZwT3rCd4wff-6" target="XcEQjQh1tZwT3rCd4wff-70">
          <mxGeometry relative="1" as="geometry" />
        </mxCell>
        <mxCell id="XcEQjQh1tZwT3rCd4wff-95" style="edgeStyle=orthogonalEdgeStyle;rounded=0;orthogonalLoop=1;jettySize=auto;html=1;exitX=0.75;exitY=1;exitDx=0;exitDy=0;entryX=0;entryY=0.5;entryDx=0;entryDy=0;" edge="1" parent="1" source="XcEQjQh1tZwT3rCd4wff-6" target="XcEQjQh1tZwT3rCd4wff-81">
          <mxGeometry relative="1" as="geometry">
            <Array as="points">
              <mxPoint x="-220" y="612" />
            </Array>
          </mxGeometry>
        </mxCell>
        <mxCell id="XcEQjQh1tZwT3rCd4wff-96" style="edgeStyle=orthogonalEdgeStyle;rounded=0;orthogonalLoop=1;jettySize=auto;html=1;exitX=0.75;exitY=1;exitDx=0;exitDy=0;entryX=0;entryY=0.5;entryDx=0;entryDy=0;" edge="1" parent="1" source="XcEQjQh1tZwT3rCd4wff-6" target="XcEQjQh1tZwT3rCd4wff-83">
          <mxGeometry relative="1" as="geometry" />
        </mxCell>
        <mxCell id="XcEQjQh1tZwT3rCd4wff-97" style="edgeStyle=orthogonalEdgeStyle;rounded=0;orthogonalLoop=1;jettySize=auto;html=1;exitX=0.75;exitY=1;exitDx=0;exitDy=0;entryX=0;entryY=0.5;entryDx=0;entryDy=0;" edge="1" parent="1" source="XcEQjQh1tZwT3rCd4wff-6" target="XcEQjQh1tZwT3rCd4wff-85">
          <mxGeometry relative="1" as="geometry" />
        </mxCell>
        <mxCell id="XcEQjQh1tZwT3rCd4wff-98" style="edgeStyle=orthogonalEdgeStyle;rounded=0;orthogonalLoop=1;jettySize=auto;html=1;exitX=0.75;exitY=1;exitDx=0;exitDy=0;entryX=0;entryY=0.5;entryDx=0;entryDy=0;" edge="1" parent="1" source="XcEQjQh1tZwT3rCd4wff-6" target="XcEQjQh1tZwT3rCd4wff-87">
          <mxGeometry relative="1" as="geometry" />
        </mxCell>
        <mxCell id="XcEQjQh1tZwT3rCd4wff-99" style="edgeStyle=orthogonalEdgeStyle;rounded=0;orthogonalLoop=1;jettySize=auto;html=1;exitX=0.75;exitY=1;exitDx=0;exitDy=0;entryX=0;entryY=0.5;entryDx=0;entryDy=0;" edge="1" parent="1" source="XcEQjQh1tZwT3rCd4wff-6" target="XcEQjQh1tZwT3rCd4wff-92">
          <mxGeometry relative="1" as="geometry" />
        </mxCell>
        <mxCell id="XcEQjQh1tZwT3rCd4wff-100" style="edgeStyle=orthogonalEdgeStyle;rounded=0;orthogonalLoop=1;jettySize=auto;html=1;exitX=0.75;exitY=1;exitDx=0;exitDy=0;entryX=0;entryY=0.5;entryDx=0;entryDy=0;" edge="1" parent="1" source="XcEQjQh1tZwT3rCd4wff-6" target="XcEQjQh1tZwT3rCd4wff-89">
          <mxGeometry relative="1" as="geometry" />
        </mxCell>
        <mxCell id="XcEQjQh1tZwT3rCd4wff-6" value="VariazioneProdotti" style="whiteSpace=wrap;html=1;" vertex="1" parent="1">
          <mxGeometry x="-310" y="525" width="120" height="60" as="geometry" />
        </mxCell>
        <mxCell id="XcEQjQh1tZwT3rCd4wff-7" value="Appartiene" style="rhombus;whiteSpace=wrap;html=1;" vertex="1" parent="1">
          <mxGeometry x="420" y="800" width="80" height="80" as="geometry" />
        </mxCell>
        <mxCell id="XcEQjQh1tZwT3rCd4wff-10" value="" style="endArrow=none;html=1;rounded=0;" edge="1" parent="1">
          <mxGeometry width="50" height="50" relative="1" as="geometry">
            <mxPoint x="620" y="870" as="sourcePoint" />
            <mxPoint x="620" y="810" as="targetPoint" />
            <Array as="points" />
          </mxGeometry>
        </mxCell>
        <mxCell id="XcEQjQh1tZwT3rCd4wff-11" value="Effetua" style="rhombus;whiteSpace=wrap;html=1;" vertex="1" parent="1">
          <mxGeometry x="-50" y="200" width="80" height="80" as="geometry" />
        </mxCell>
        <mxCell id="XcEQjQh1tZwT3rCd4wff-18" value="" style="endArrow=none;html=1;rounded=0;" edge="1" parent="1">
          <mxGeometry width="50" height="50" relative="1" as="geometry">
            <mxPoint x="-100" y="270" as="sourcePoint" />
            <mxPoint x="-100" y="200" as="targetPoint" />
          </mxGeometry>
        </mxCell>
        <mxCell id="XcEQjQh1tZwT3rCd4wff-19" value="Subisce" style="rhombus;whiteSpace=wrap;html=1;" vertex="1" parent="1">
          <mxGeometry x="-130" y="800" width="80" height="80" as="geometry" />
        </mxCell>
        <mxCell id="XcEQjQh1tZwT3rCd4wff-23" value="" style="ellipse;whiteSpace=wrap;html=1;aspect=fixed;" vertex="1" parent="1">
          <mxGeometry x="-180" y="300" width="20" height="20" as="geometry" />
        </mxCell>
        <mxCell id="XcEQjQh1tZwT3rCd4wff-24" value="Nome" style="text;html=1;align=center;verticalAlign=middle;resizable=0;points=[];autosize=1;strokeColor=none;fillColor=none;" vertex="1" parent="1">
          <mxGeometry x="-170" y="295" width="60" height="30" as="geometry" />
        </mxCell>
        <mxCell id="XcEQjQh1tZwT3rCd4wff-25" value="" style="ellipse;whiteSpace=wrap;html=1;aspect=fixed;" vertex="1" parent="1">
          <mxGeometry x="-180" y="332" width="20" height="20" as="geometry" />
        </mxCell>
        <mxCell id="XcEQjQh1tZwT3rCd4wff-26" value="Cognome" style="text;html=1;align=center;verticalAlign=middle;resizable=0;points=[];autosize=1;strokeColor=none;fillColor=none;" vertex="1" parent="1">
          <mxGeometry x="-170" y="330" width="80" height="30" as="geometry" />
        </mxCell>
        <mxCell id="XcEQjQh1tZwT3rCd4wff-27" value="" style="ellipse;whiteSpace=wrap;html=1;aspect=fixed;" vertex="1" parent="1">
          <mxGeometry x="-180" y="360" width="20" height="20" as="geometry" />
        </mxCell>
        <mxCell id="XcEQjQh1tZwT3rCd4wff-32" value="Email" style="text;html=1;align=center;verticalAlign=middle;resizable=0;points=[];autosize=1;strokeColor=none;fillColor=none;" vertex="1" parent="1">
          <mxGeometry x="-165" y="358" width="50" height="30" as="geometry" />
        </mxCell>
        <mxCell id="XcEQjQh1tZwT3rCd4wff-36" value="" style="ellipse;whiteSpace=wrap;html=1;aspect=fixed;" vertex="1" parent="1">
          <mxGeometry x="240" y="302" width="20" height="20" as="geometry" />
        </mxCell>
        <mxCell id="XcEQjQh1tZwT3rCd4wff-37" value="DataOrdine" style="text;html=1;align=center;verticalAlign=middle;resizable=0;points=[];autosize=1;strokeColor=none;fillColor=none;" vertex="1" parent="1">
          <mxGeometry x="260" y="297" width="80" height="30" as="geometry" />
        </mxCell>
        <mxCell id="XcEQjQh1tZwT3rCd4wff-43" value="" style="ellipse;whiteSpace=wrap;html=1;aspect=fixed;fillColor=#190033;" vertex="1" parent="1">
          <mxGeometry x="780" y="930" width="20" height="20" as="geometry" />
        </mxCell>
        <mxCell id="XcEQjQh1tZwT3rCd4wff-44" value="Nome" style="text;html=1;align=center;verticalAlign=middle;resizable=0;points=[];autosize=1;strokeColor=none;fillColor=none;" vertex="1" parent="1">
          <mxGeometry x="790" y="925" width="60" height="30" as="geometry" />
        </mxCell>
        <mxCell id="XcEQjQh1tZwT3rCd4wff-54" style="edgeStyle=orthogonalEdgeStyle;rounded=0;orthogonalLoop=1;jettySize=auto;html=1;" edge="1" parent="1" source="XcEQjQh1tZwT3rCd4wff-47" target="XcEQjQh1tZwT3rCd4wff-53">
          <mxGeometry relative="1" as="geometry" />
        </mxCell>
        <mxCell id="XcEQjQh1tZwT3rCd4wff-72" style="edgeStyle=orthogonalEdgeStyle;rounded=0;orthogonalLoop=1;jettySize=auto;html=1;entryX=1;entryY=0.5;entryDx=0;entryDy=0;" edge="1" parent="1" source="XcEQjQh1tZwT3rCd4wff-47" target="XcEQjQh1tZwT3rCd4wff-70">
          <mxGeometry relative="1" as="geometry" />
        </mxCell>
        <mxCell id="XcEQjQh1tZwT3rCd4wff-80" style="edgeStyle=orthogonalEdgeStyle;rounded=0;orthogonalLoop=1;jettySize=auto;html=1;exitX=0.75;exitY=1;exitDx=0;exitDy=0;entryX=0;entryY=0.5;entryDx=0;entryDy=0;" edge="1" parent="1" source="XcEQjQh1tZwT3rCd4wff-47" target="XcEQjQh1tZwT3rCd4wff-79">
          <mxGeometry relative="1" as="geometry" />
        </mxCell>
        <mxCell id="XcEQjQh1tZwT3rCd4wff-47" value="DettaglioOrdini" style="rounded=0;whiteSpace=wrap;html=1;" vertex="1" parent="1">
          <mxGeometry x="120" y="524.5" width="120" height="60" as="geometry" />
        </mxCell>
        <mxCell id="XcEQjQh1tZwT3rCd4wff-53" value="descrive" style="rhombus;whiteSpace=wrap;html=1;" vertex="1" parent="1">
          <mxGeometry x="140" y="360" width="80" height="80" as="geometry" />
        </mxCell>
        <mxCell id="XcEQjQh1tZwT3rCd4wff-57" value="" style="endArrow=none;html=1;rounded=0;" edge="1" parent="1">
          <mxGeometry width="50" height="50" relative="1" as="geometry">
            <mxPoint x="150" y="320" as="sourcePoint" />
            <mxPoint x="210" y="320" as="targetPoint" />
          </mxGeometry>
        </mxCell>
        <mxCell id="XcEQjQh1tZwT3rCd4wff-58" value="" style="ellipse;whiteSpace=wrap;html=1;aspect=fixed;" vertex="1" parent="1">
          <mxGeometry x="200" y="912" width="20" height="20" as="geometry" />
        </mxCell>
        <mxCell id="XcEQjQh1tZwT3rCd4wff-59" value="Nome" style="text;html=1;align=center;verticalAlign=middle;resizable=0;points=[];autosize=1;strokeColor=none;fillColor=none;" vertex="1" parent="1">
          <mxGeometry x="220" y="910" width="60" height="30" as="geometry" />
        </mxCell>
        <mxCell id="XcEQjQh1tZwT3rCd4wff-60" value="" style="ellipse;whiteSpace=wrap;html=1;aspect=fixed;" vertex="1" parent="1">
          <mxGeometry x="200" y="947" width="20" height="20" as="geometry" />
        </mxCell>
        <mxCell id="XcEQjQh1tZwT3rCd4wff-61" value="Descrizione" style="text;html=1;align=center;verticalAlign=middle;resizable=0;points=[];autosize=1;strokeColor=none;fillColor=none;" vertex="1" parent="1">
          <mxGeometry x="220" y="940" width="90" height="30" as="geometry" />
        </mxCell>
        <mxCell id="XcEQjQh1tZwT3rCd4wff-63" value="" style="ellipse;whiteSpace=wrap;html=1;aspect=fixed;" vertex="1" parent="1">
          <mxGeometry x="200" y="980" width="20" height="20" as="geometry" />
        </mxCell>
        <mxCell id="XcEQjQh1tZwT3rCd4wff-64" value="ImmagineUrl" style="text;html=1;align=center;verticalAlign=middle;resizable=0;points=[];autosize=1;strokeColor=none;fillColor=none;" vertex="1" parent="1">
          <mxGeometry x="220" y="975" width="90" height="30" as="geometry" />
        </mxCell>
        <mxCell id="XcEQjQh1tZwT3rCd4wff-68" style="edgeStyle=orthogonalEdgeStyle;rounded=0;orthogonalLoop=1;jettySize=auto;html=1;exitX=1;exitY=1;exitDx=0;exitDy=0;entryX=0.5;entryY=1;entryDx=0;entryDy=0;" edge="1" parent="1" source="XcEQjQh1tZwT3rCd4wff-43" target="XcEQjQh1tZwT3rCd4wff-43">
          <mxGeometry relative="1" as="geometry" />
        </mxCell>
        <mxCell id="XcEQjQh1tZwT3rCd4wff-70" value="riferisce" style="rhombus;whiteSpace=wrap;html=1;" vertex="1" parent="1">
          <mxGeometry x="-100" y="515" width="80" height="80" as="geometry" />
        </mxCell>
        <mxCell id="XcEQjQh1tZwT3rCd4wff-73" value="Prodotto_categoria" style="text;html=1;align=center;verticalAlign=middle;resizable=0;points=[];autosize=1;strokeColor=none;fillColor=none;" vertex="1" parent="1">
          <mxGeometry x="400" y="748" width="120" height="30" as="geometry" />
        </mxCell>
        <mxCell id="XcEQjQh1tZwT3rCd4wff-74" value="" style="endArrow=none;html=1;rounded=0;" edge="1" parent="1">
          <mxGeometry width="50" height="50" relative="1" as="geometry">
            <mxPoint x="-130" y="580" as="sourcePoint" />
            <mxPoint x="-130" y="535" as="targetPoint" />
          </mxGeometry>
        </mxCell>
        <mxCell id="XcEQjQh1tZwT3rCd4wff-77" value="" style="endArrow=none;html=1;rounded=0;" edge="1" parent="1">
          <mxGeometry width="50" height="50" relative="1" as="geometry">
            <mxPoint x="95" y="860" as="sourcePoint" />
            <mxPoint x="95" y="810" as="targetPoint" />
          </mxGeometry>
        </mxCell>
        <mxCell id="XcEQjQh1tZwT3rCd4wff-78" value="Quantita" style="text;html=1;align=center;verticalAlign=middle;resizable=0;points=[];autosize=1;strokeColor=none;fillColor=none;" vertex="1" parent="1">
          <mxGeometry x="255" y="610" width="70" height="30" as="geometry" />
        </mxCell>
        <mxCell id="XcEQjQh1tZwT3rCd4wff-79" value="" style="ellipse;whiteSpace=wrap;html=1;aspect=fixed;" vertex="1" parent="1">
          <mxGeometry x="230" y="615" width="20" height="20" as="geometry" />
        </mxCell>
        <mxCell id="XcEQjQh1tZwT3rCd4wff-81" value="" style="ellipse;whiteSpace=wrap;html=1;aspect=fixed;" vertex="1" parent="1">
          <mxGeometry x="-197.5" y="602" width="20" height="20" as="geometry" />
        </mxCell>
        <mxCell id="XcEQjQh1tZwT3rCd4wff-82" value="Taglia" style="text;html=1;align=center;verticalAlign=middle;resizable=0;points=[];autosize=1;strokeColor=none;fillColor=none;" vertex="1" parent="1">
          <mxGeometry x="-177.5" y="600" width="50" height="30" as="geometry" />
        </mxCell>
        <mxCell id="XcEQjQh1tZwT3rCd4wff-83" value="" style="ellipse;whiteSpace=wrap;html=1;aspect=fixed;" vertex="1" parent="1">
          <mxGeometry x="-197.5" y="634" width="20" height="20" as="geometry" />
        </mxCell>
        <mxCell id="XcEQjQh1tZwT3rCd4wff-84" value="Quantita" style="text;html=1;align=center;verticalAlign=middle;resizable=0;points=[];autosize=1;strokeColor=none;fillColor=none;" vertex="1" parent="1">
          <mxGeometry x="-182.5" y="629" width="70" height="30" as="geometry" />
        </mxCell>
        <mxCell id="XcEQjQh1tZwT3rCd4wff-85" value="" style="ellipse;whiteSpace=wrap;html=1;aspect=fixed;" vertex="1" parent="1">
          <mxGeometry x="-197.5" y="662" width="18" height="18" as="geometry" />
        </mxCell>
        <mxCell id="XcEQjQh1tZwT3rCd4wff-86" value="PrezzoPieno" style="text;html=1;align=center;verticalAlign=middle;resizable=0;points=[];autosize=1;strokeColor=none;fillColor=none;" vertex="1" parent="1">
          <mxGeometry x="-178.5" y="656" width="90" height="30" as="geometry" />
        </mxCell>
        <mxCell id="XcEQjQh1tZwT3rCd4wff-87" value="" style="ellipse;whiteSpace=wrap;html=1;aspect=fixed;" vertex="1" parent="1">
          <mxGeometry x="-196.5" y="687" width="18" height="18" as="geometry" />
        </mxCell>
        <mxCell id="XcEQjQh1tZwT3rCd4wff-88" value="PrezzoOfferta" style="text;html=1;align=center;verticalAlign=middle;resizable=0;points=[];autosize=1;strokeColor=none;fillColor=none;" vertex="1" parent="1">
          <mxGeometry x="-180" y="681" width="100" height="30" as="geometry" />
        </mxCell>
        <mxCell id="XcEQjQh1tZwT3rCd4wff-89" value="" style="ellipse;whiteSpace=wrap;html=1;aspect=fixed;" vertex="1" parent="1">
          <mxGeometry x="-196.5" y="738" width="18" height="18" as="geometry" />
        </mxCell>
        <mxCell id="XcEQjQh1tZwT3rCd4wff-90" value="DataFineOfferta" style="text;html=1;align=center;verticalAlign=middle;resizable=0;points=[];autosize=1;strokeColor=none;fillColor=none;" vertex="1" parent="1">
          <mxGeometry x="-181.5" y="733" width="110" height="30" as="geometry" />
        </mxCell>
        <mxCell id="XcEQjQh1tZwT3rCd4wff-92" value="" style="ellipse;whiteSpace=wrap;html=1;aspect=fixed;" vertex="1" parent="1">
          <mxGeometry x="-196.5" y="715" width="18" height="18" as="geometry" />
        </mxCell>
        <mxCell id="XcEQjQh1tZwT3rCd4wff-93" value="DataInizioOfferta" style="text;html=1;align=center;verticalAlign=middle;resizable=0;points=[];autosize=1;strokeColor=none;fillColor=none;" vertex="1" parent="1">
          <mxGeometry x="-181.5" y="710" width="110" height="30" as="geometry" />
        </mxCell>
        <mxCell id="XcEQjQh1tZwT3rCd4wff-101" value="" style="endArrow=none;html=1;rounded=0;" edge="1" parent="1">
          <mxGeometry width="50" height="50" relative="1" as="geometry">
            <mxPoint x="350" y="880" as="sourcePoint" />
            <mxPoint x="350" y="820" as="targetPoint" />
          </mxGeometry>
        </mxCell>
      </root>
    </mxGraphModel>
  </diagram>
</mxfile>
